<svg xmlns="http://www.w3.org/2000/svg" xmlns:xlink="http://www.w3.org/1999/xlink" width="287.878" height="145.986" viewBox="0 0 287.878 145.986"><defs><style>.a{fill:#3f3d56;}.b{fill:#f3f3f3;stroke:#f4f4f4;}.c,.e{fill:#fff;}.c,.l{stroke:#54c0ee;}.c{stroke-linecap:square;stroke-dasharray:6 3;}.d{fill:#54c0ee;}.f{clip-path:url(#a);}.g{fill:#ff7871;}.h{fill:#d1514e;}.i{fill:#005d9b;}.j{fill:#6ccbe5;}.k{fill:#051935;}.l{fill:none;stroke-width:4px;}</style><clipPath id="a"><path class="a" d="M341.879,289.678a35.264,35.264,0,0,1-6.822,20.9c-.506.693-1.037,1.37-1.594,2.023a35.554,35.554,0,0,1-5.25,5.037c-.192.149-.386.3-.584.445q-1.079.807-2.22,1.532c-.232.147-.464.29-.7.429q-.8.484-1.62.922c-.269.144-.541.285-.813.421a35.468,35.468,0,0,1-35.484-2.209c-.277-.181-.549-.368-.818-.56-.506-.357-1-.73-1.49-1.114-.448-.352-.885-.717-1.314-1.09a35.489,35.489,0,0,1-5.956-6.673q-.5-.724-.959-1.471a35.445,35.445,0,1,1,65.622-18.6Z" transform="translate(-69.01 -168.95)"/></clipPath></defs><g transform="translate(-41.692 -238.182)"><g transform="translate(-293.21 -445.523)"><path class="b" d="M589.766,684.205H371.541a19.331,19.331,0,0,0-19.331,19.331h0V829.191H589.766a19.331,19.331,0,0,0,19.33-19.331h0V703.536a19.331,19.331,0,0,0-19.33-19.331Z"/><path class="c" d="M352.21,793.225v35.965H589.766a19.331,19.331,0,0,0,19.33-19.331h0v-15.8Z" transform="translate(0 0)"/><path class="d" d="M5.72,0H128.361a5.72,5.72,0,0,1,5.72,5.72v4.458a5.72,5.72,0,0,1-5.72,5.72H0a0,0,0,0,1,0,0V5.72A5.72,5.72,0,0,1,5.72,0Z" transform="translate(454.069 707.66)"/><path class="d" d="M5.72,0H121.25a5.72,5.72,0,0,1,5.72,5.72v4.458a5.72,5.72,0,0,1-5.72,5.72H0a0,0,0,0,1,0,0V5.72A5.72,5.72,0,0,1,5.72,0Z" transform="translate(454.069 734.415)"/><path class="d" d="M5.72,0H61.374a5.72,5.72,0,0,1,5.72,5.72v4.458a5.72,5.72,0,0,1-5.72,5.72H0a0,0,0,0,1,0,0V5.72A5.72,5.72,0,0,1,5.72,0Z" transform="translate(454.069 760.782)"/><circle class="e" cx="32.81" cy="32.81" r="32.81" transform="translate(367.431 707.66)"/></g><g class="f" transform="translate(-130.44 171.559)"><g transform="translate(205.216 100.194)"><path class="g" d="M741.9,384.915a18.369,18.369,0,0,1-6.366,3.646,10.465,10.465,0,0,1-6.96-.646c-1.09-.5-2.463-1.187-2.728-2.483a1.763,1.763,0,0,1-.031-.191,1.554,1.554,0,0,1-.439-1.428,1.607,1.607,0,0,1,.225-.56l4.144-6.758a19.449,19.449,0,0,1,1.728-2.778,3.622,3.622,0,0,1,.471-.451,3.746,3.746,0,0,1,2.51-.514,1.715,1.715,0,0,1,2.957.529.494.494,0,0,1,.02.1,12.435,12.435,0,0,0,1.027,3.763,12.072,12.072,0,0,0,2.762,3.84,1.54,1.54,0,0,1,.424,1.28c.008,0,.012.008.02.008A1.683,1.683,0,0,1,741.9,384.915Z" transform="translate(-702.681 -352.655)"/><path class="h" d="M738.5,378.539c-1.848.7-3.941,1.035-5.669,1.9a9.276,9.276,0,0,0-3.447,2.965,10.48,10.48,0,0,1-2.113,2.35.745.745,0,0,1-.782,0,2.7,2.7,0,0,1-.362-.331,1.5,1.5,0,0,1-.65-.187l-.058-.035a1.605,1.605,0,0,1,.225-.56l4.144-6.758a19.449,19.449,0,0,1,1.728-2.778,9.685,9.685,0,0,1,3.167-.125,8.509,8.509,0,0,0,2.77-.311.5.5,0,0,1,.02.1A12.435,12.435,0,0,0,738.5,378.539Z" transform="translate(-702.722 -354.046)"/><path class="i" d="M732.882,401.629a21.644,21.644,0,0,0-6.739-7.6c-.428-.288-.868-.576-1.323-.848-.117-.07-.234-.14-.35-.207s-.233-.14-.354-.206a18.262,18.262,0,0,0-2.661-1.261,1.314,1.314,0,0,0-.159-.058c-.055-.023-.109-.043-.164-.062-.327-.117-.657-.218-.992-.307-.062-.02-.128-.031-.19-.051-.129-.016-.253-.039-.381-.054-.728-.09-1.455-.132-2.183-.164-.784-.032-1.568-.057-2.352-.125a18.588,18.588,0,0,1-2.422,2.838c-1.521,1.9-3.552,3.114-6.361,2.439a8.314,8.314,0,0,1-.84-.253,6.456,6.456,0,0,1-1.861-.943,11.853,11.853,0,0,1-3.341-3.657c-.818.135-1.659.2-2.46.254-.187.011-.366.027-.549.047a16.1,16.1,0,0,0-4.5,1.089c-.49.2-.973.412-1.444.642-.21.1-.417.2-.619.307q-.922.484-1.786,1.051c-.14.089-.276.179-.412.269-.171.116-.339.229-.506.35a29.139,29.139,0,0,0-4.35,3.825,28.263,28.263,0,0,0-5.572,8.693c-.074.2-.152.4-.226.607-.284.77-.56,1.549-.821,2.335a38.794,38.794,0,0,0-1.3,6.1c3.549.72,7.035,1.817,10.556,2.634a65.024,65.024,0,0,0,2.832-9.147c.109.269.214.533.323.8,1.078,2.587,2.183,5.167,3.226,7.766a35.194,35.194,0,0,1,1.331,3.871c.159.588.3,1.183.4,1.782a16.661,16.661,0,0,1,.229,1.918,16.832,16.832,0,0,1-1.343,7.54H720.15a24.935,24.935,0,0,0,3.023-1.642.716.716,0,0,0,.1-1.046,7.232,7.232,0,0,1-1.646-3.992c-.023-.191-.039-.381-.05-.572a17.031,17.031,0,0,1,.724-5.249c.315-1.152.634-2.311.977-3.463a.015.015,0,0,0,0-.012c.067-.229.136-.455.207-.685.14-.459.284-.914.436-1.374a46.771,46.771,0,0,1,1.821-4.739q1.447,3.846,2.751,7.731a1.606,1.606,0,0,0,1.175,1.086,6.173,6.173,0,0,0,2.965-.21c.957-.311,2.151-1.2,3.214-1.008a1.675,1.675,0,0,0,2.012-1.07,2.1,2.1,0,0,0,.439-.28C736.772,412.006,735.578,406.528,732.882,401.629Z" transform="translate(-675.662 -362.755)"/><path class="j" d="M739.822,400.716c0-2-.1-4-.3-6-.024-.229-.051-.463-.078-.693-.117-.07-.234-.14-.35-.206s-.233-.136-.354-.2v0l-2.661-1.26v0c-.054-.02-.109-.039-.159-.062s-.1-.038-.144-.055c0,.043,0,.086,0,.129q.048.381.1.762c.039.268.082.541.125.809q-.172,3.5-.342,7c0,.371,0,.742,0,1.114.041,4.577.709,9.2-1.111,13.545-.745,1.781-21.857,2.929-22.225,1.023-.941-4.867-3.171-12.062-4.673-16.787-.615-1.934-1.286-3.852-1.865-5.8-.176.084-.351.171-.521.259q-.922.484-1.786,1.051c-.14.089-.276.179-.412.269-.171.116-.339.229-.506.35q1.074,3.59,2.144,7.187.455,1.826.883,3.661c1.031,4.354,2.163,8.731,2.9,13.147q.263,1.57.381,3.144c.058.7.085,1.416.089,2.129,0,.447,0,.895-.02,1.342a33.884,33.884,0,0,1-.3,3.436c-.074.533-.159,1.066-.26,1.6-.027.14-.055.28-.082.424,0,0-.035.152-.047.214-.011.043-.023.09-.023.09-.042.144-.082.288-.125.432a8.55,8.55,0,0,1-.428,1.086c0,.008-.012.016-.016.023a10.991,10.991,0,0,1-.455,1.206h31.314c.171-.225.339-.451.514-.673.008-.012.016-.02.023-.031a.623.623,0,0,1-.086-.14c-.191-.439-.4-.868-.587-1.3-.572-1.214-1.024-2.483-1.506-3.735,0-.008,0-.016-.008-.02a3.059,3.059,0,0,1-.249-.346.81.81,0,0,1-.1-.265,2.484,2.484,0,0,1-.257-.56,1.759,1.759,0,0,1-.051-.572,5.241,5.241,0,0,1,.082-.615c.229-1.346.521-2.681.809-4.015a34.121,34.121,0,0,0,1.02-4.778c.144-.922.276-1.844.424-2.759a33.472,33.472,0,0,0,.712-5.252c.062-.533.12-1.07.175-1.6.136-1.016.249-2.035.334-3.05A33.13,33.13,0,0,0,739.822,400.716Z" transform="translate(-690.291 -363.6)"/><g transform="translate(20.989 3.213)"><path class="h" d="M760.685,357.531c-.034-.8-.849-1.2-1.762-1.169a4.737,4.737,0,0,0-1.12.173.782.782,0,0,0-.6.027l-.56.242a1.274,1.274,0,0,0-.986.511.521.521,0,0,0-.069.127.493.493,0,0,0-.225.544,7.336,7.336,0,0,1,.145,2.05l-.025.3c-.054.644,1.031.726,1.309.223C758.456,360.234,760.75,359.072,760.685,357.531Z" transform="translate(-739.984 -347.3)"/><path class="h" d="M721.682,358.079c.091-.794.933-1.161,1.843-1.1a4.65,4.65,0,0,1,1.106.217.779.779,0,0,1,.6.051l.542.264a1.228,1.228,0,0,1,.948.549.507.507,0,0,1,.06.13.48.48,0,0,1,.186.552,7.42,7.42,0,0,0-.292,2.041l0,.3c.008.645-1.082.684-1.324.171C723.715,360.867,721.507,359.615,721.682,358.079Z" transform="translate(-721.672 -347.634)"/><ellipse class="g" cx="8.896" cy="10.492" rx="8.896" ry="10.492" transform="translate(1.518)"/></g><path class="k" d="M741,330.32c.107-1-1.231-1.1-1.7-.461-1.248,1.692-6.6.186-8.334.076a11.3,11.3,0,0,0-6.091,1,7.633,7.633,0,0,0-3.754,8.5,4.808,4.808,0,0,0,.286,1.258,2.93,2.93,0,0,0,1.3,1.692,15.255,15.255,0,0,0,.632,5.047.885.885,0,0,0,.032.374,7.536,7.536,0,0,0,2.14,3.859,5.025,5.025,0,0,0,.9.568,6.182,6.182,0,0,0,2.728,1.446,7.824,7.824,0,0,0,2.7.375,7.941,7.941,0,0,0,5.182-2.165c.061-.044.121-.089.181-.135a5.726,5.726,0,0,0,1.529-1.628c1.638-2.319,2-5.186,2.105-7.983.005-.1.009-.207.013-.311a2.888,2.888,0,0,0,.729-.517C744.864,338.183,740.64,333.711,741,330.32Zm-14.817,17.272a9.88,9.88,0,0,1,1.319-.635,15.21,15.21,0,0,1,7.969-.1,7.386,7.386,0,0,1,1.312.691C734.016,349.88,728.929,350.036,726.185,347.592Zm13.3-2.276a10.627,10.627,0,0,1-.569,1.728.908.908,0,0,0-.149-.011,7.136,7.136,0,0,0-3.987-1.853,12.871,12.871,0,0,0-8.752.957c-.091.043-.18.088-.267.134q-.452.241-.872.516a1.049,1.049,0,0,0-.213-.052,22.417,22.417,0,0,1-.863-4.163c1.565-.184,3.328-1.952,4.248-3.373,2.322.4,5.284.608,7.247-.76,1.022,1.652,2.819,3.672,4.6,3.634A26.235,26.235,0,0,1,739.486,345.315Z" transform="translate(-700.276 -329.457)"/></g></g><path class="d" d="M851.88,510.126a2.024,2.024,0,0,1-2.023-2.023V497.479a2.023,2.023,0,1,1,4.047,0V508.1A2.024,2.024,0,0,1,851.88,510.126Z" transform="translate(-808.165 -155.727)"/><g transform="translate(2.649 -9)"><path class="d" d="M1040.036,510.126a2.024,2.024,0,0,1-2.024-2.023V497.479a2.023,2.023,0,1,1,4.047,0V508.1A2.024,2.024,0,0,1,1040.036,510.126Z" transform="translate(-715.138 -146.727)"/><line class="l" x2="284" transform="translate(40.851 356.5)"/></g></g></svg>