<?xml version="1.0" encoding="UTF-8"?>
<svg width="32px" height="32px" viewBox="0 0 32 32" version="1.1" xmlns="http://www.w3.org/2000/svg" xmlns:xlink="http://www.w3.org/1999/xlink">
<title>EFBDC13D-B68B-44DC-AD56-E9615056D85C</title>
<g id="Design-System" stroke="none" stroke-width="1" fill="none" fill-rule="evenodd">
  <g id="Icons" transform="translate(-144.000000, -172.000000)" fill="#999999">
    <g id="Group-4-Copy-12" transform="translate(144.000000, 172.000000)">
      <g id="003-file" transform="translate(8.000000, 6.000000)">
        <path d="M12.8462871,0 C14.58521,0 16,1.40182496 16,3.125 L16,3.125 L16,12.96875 C16,13.4002686 15.6469184,13.75 15.2114563,13.75 C14.7761481,13.75 14.4230666,13.4002686 14.4230666,12.96875 L14.4230666,12.96875 L14.4230666,3.125 C14.4230666,2.26348875 13.7158255,1.5625 12.8462871,1.5625 L12.8462871,1.5625 L5.68703083,1.5625 C5.28790852,1.5625 4.89771722,1.72363281 4.61685338,2.00454711 L4.61685338,2.00454711 L2.01331948,4.60723875 C1.88613003,4.73449707 1.78496362,4.88067625 1.711976,5.0390625 L1.711976,5.0390625 L3.90252916,5.0390625 C4.5546445,5.0390625 5.08511375,4.51339723 5.08511375,3.8671875 C5.08511375,3.43566895 5.43804134,3.0859375 5.87350348,3.0859375 C6.30896562,3.0859375 6.66189321,3.43566895 6.66189321,3.8671875 C6.66189321,5.37490844 5.42402894,6.6015625 3.90252916,6.6015625 L3.90252916,6.6015625 L1.57677946,6.6015625 L1.57677946,16.875 C1.57677946,17.7365112 2.28417444,18.4375 3.15355892,18.4375 L3.15355892,18.4375 L12.8464411,18.4375 C13.7158255,18.4375 14.4232205,17.7365112 14.4232205,16.875 C14.4232205,16.4434814 14.7761481,16.09375 15.2116103,16.09375 C15.6469184,16.09375 16,16.4434814 16,16.875 C16,18.598175 14.58521,20 12.8464411,20 L12.8464411,20 L3.15355892,20 C1.41463603,20 0,18.598175 0,16.875 L0,16.875 L0,5.65841676 C0,4.84741211 0.317357653,4.08340453 0.893559697,3.50738523 L0.893559697,3.50738523 L3.49693962,0.904541016 C4.07190977,0.329742422 4.87015437,0 5.68703083,0 L5.68703083,0 Z M11,12.4477153 C11.3398675,12.4477153 11.6203347,12.7020387 11.6614724,13.0307567 L11.6666667,13.1143819 L11.6670374,14.3329626 L12.8856181,14.3333333 C13.2538079,14.3333333 13.5522847,14.6318102 13.5522847,15 C13.5522847,15.3398675 13.2979613,15.6203347 12.9692433,15.6614724 L12.8856181,15.6666667 L11.6670374,15.6670374 L11.6666667,16.8856181 C11.6666667,17.2538079 11.3681898,17.5522847 11,17.5522847 C10.6601325,17.5522847 10.3796653,17.2979613 10.3385276,16.9692433 L10.3333333,16.8856181 L10.3329626,15.6670374 L9.11438192,15.6666667 C8.74619208,15.6666667 8.44771525,15.3681898 8.44771525,15 C8.44771525,14.6884548 8.6614176,14.4268224 8.95023119,14.353694 L9.03075667,14.3385276 L9.11438192,14.3333333 L10.3329626,14.3329626 L10.3333333,13.1143819 C10.3333333,12.7461921 10.6318102,12.4477153 11,12.4477153 Z" id="Combined-Shape"></path>
      </g>
    </g>
  </g>
</g>
</svg>
