<svg xmlns="http://www.w3.org/2000/svg" xmlns:xlink="http://www.w3.org/1999/xlink" width="276.735" height="309.349" viewBox="0 0 276.735 309.349"><defs><style>.a{fill:#88bc08;}.b,.h{fill:none;stroke:#c1ef1b;}.b,.e,.h{stroke-miterlimit:10;}.b{stroke-width:0.474px;}.c{fill:#fff;}.d{fill:#f3f3f3;}.e{fill:#f4f4f4;stroke:#54c0ee;stroke-dasharray:5 10;}.f{fill:#54c0ee;}.g{fill:#aae500;}.h{stroke-width:0.627px;}.i{fill:url(#a);}.j{fill:url(#b);}.k{fill:#fcfcfc;}.l{fill:#e0e0e0;}.m{fill:#6c63ff;isolation:isolate;}.m,.p{opacity:0.5;}.n{fill:#c6eeff;}.o{fill:#f5f5f5;}.q{fill:url(#c);}.r{fill:#95c11f;}.s{fill:url(#d);}.t{fill:url(#e);}.u{fill:url(#f);}</style><linearGradient id="a" x1="0.5" y1="-43.443" x2="0.5" y2="-42.443" gradientUnits="objectBoundingBox"><stop offset="0" stop-color="#b3b3b3" stop-opacity="0.251"/><stop offset="0.54" stop-color="#b3b3b3" stop-opacity="0.102"/><stop offset="1" stop-color="#b3b3b3" stop-opacity="0.051"/></linearGradient><linearGradient id="b" x1="3.171" y1="-7.03" x2="3.171" y2="-6.03" xlink:href="#a"/><linearGradient id="c" x1="0.5" y1="-27.239" x2="0.5" y2="-26.239" gradientUnits="objectBoundingBox"><stop offset="0" stop-color="gray" stop-opacity="0.251"/><stop offset="0.54" stop-color="gray" stop-opacity="0.122"/><stop offset="1" stop-color="gray" stop-opacity="0.102"/></linearGradient><linearGradient id="d" x1="0.5" y1="-53.935" x2="0.5" y2="-52.935" xlink:href="#c"/><linearGradient id="e" x1="0.5" y1="-45.725" x2="0.5" y2="-44.725" xlink:href="#a"/><linearGradient id="f" x1="3.171" y1="-7.33" x2="3.171" y2="-6.33" xlink:href="#a"/></defs><g transform="translate(-755.042 -207.645)"><g transform="translate(10 14)"><path class="a" d="M962.088,281.495s-17.472-9.5-15.259,25.577c0,0,14.575-.52,19.747-12.409a10.308,10.308,0,0,0-4.231-13.03Z"/><path class="b" d="M962.382,281.554s-2.257,18.212-15.544,25.518"/></g><path class="c" d="M935.422,361.185v129.27a17.091,17.091,0,0,1-17.107,17.107H817.849a17.092,17.092,0,0,1-17.107-17.107h0V233.97a17.092,17.092,0,0,1,17.107-17.107H918.315a17.091,17.091,0,0,1,17.107,17.107h0V361.185"/><path class="d" d="M839.248,210.093h57.668a4.734,4.734,0,0,1,4.746,4.745v7.284a4.734,4.734,0,0,1-4.746,4.745H839.248a4.734,4.734,0,0,1-4.745-4.745v-7.284A4.753,4.753,0,0,1,839.248,210.093Z"/><path class="d" d="M918.859,207.645H817.335A24.765,24.765,0,0,0,792.582,232.4V491.966a24.766,24.766,0,0,0,24.753,24.754H918.859a24.766,24.766,0,0,0,24.754-24.754V232.4A24.766,24.766,0,0,0,918.859,207.645Zm16.563,153.54v129.27a17.091,17.091,0,0,1-17.107,17.107H817.849a17.092,17.092,0,0,1-17.107-17.107h0V233.97a17.092,17.092,0,0,1,17.107-17.107H918.315a17.091,17.091,0,0,1,17.107,17.107h0V361.185Z"/><rect class="e" width="108" height="108" transform="translate(814.25 281.588)"/><path class="f" d="M868.938,350.936a15.023,15.023,0,1,0-15.023-15.023h0a15.02,15.02,0,0,0,15.016,15.023Zm0-27.138a12.112,12.112,0,1,1-.007,0Zm1.211,19.868h-2.425a.73.73,0,0,1-.727-.727v-7.026h-4.058a.727.727,0,0,1-.513-1.241l6-6a.726.726,0,0,1,1.014,0l6,6a.727.727,0,0,1-.514,1.241h-4.058v7.026a.729.729,0,0,1-.713.727Z"/><path class="g" d="M807.468,449.026c3.884,14.2-12.686,54.665-12.686,54.665s-34.862-26.392-38.746-40.6a26.66,26.66,0,1,1,51.344-14.38Q807.426,448.867,807.468,449.026Z" transform="translate(0 12.908)"/><path class="h" d="M778.286,430.646s21.7,32.761,20.064,73.35" transform="translate(-3.43 12.7)"/><g transform="translate(-8)"><path class="a" d="M823.044,482.922s-23.088-12.559-20.163,33.8c0,0,19.26-.688,26.094-16.4a13.622,13.622,0,0,0-5.592-17.218Z"/><path class="h" d="M823.433,483s-2.982,24.065-20.54,33.72"/></g><g transform="translate(-7 22)"><path class="i" d="M910.464,329.144h14.577V313.927Z"/><path class="j" d="M977.4,418.563c0-8.469,8.363-16.277,16.832-16.277a15.766,15.766,0,0,1,3.763-.026c.016-.37.026-2.543.026-2.916v-85.99H924.714L909.66,328.817V428.871h69.213C977.384,426.509,977.4,421.564,977.4,418.563Z"/><path class="k" d="M976.091,420.2a19.144,19.144,0,0,1,19.144-19.143c.577,0,1.145.028,1.714.077V356.745h-85.9v70.163H977.3A19.114,19.114,0,0,1,976.091,420.2Z"/><path class="k" d="M996.886,357.4H910.791V328.817l13.923-14.562h72.172Z"/><rect class="l" width="23.354" height="1.782" transform="translate(968.17 322.941)"/><rect class="l" width="23.354" height="1.782" transform="translate(968.17 329.486)"/><rect class="l" width="23.354" height="1.782" transform="translate(968.17 336.031)"/><rect class="m" width="23.354" height="1.782" transform="translate(968.17 342.576)"/><rect class="l" width="23.354" height="1.782" transform="translate(968.17 349.12)"/><rect class="l" width="23.354" height="1.782" transform="translate(968.17 355.665)"/><rect class="f" width="23.354" height="1.782" transform="translate(923.523 369.573)"/><rect class="l" width="23.354" height="1.782" transform="translate(923.523 376.697)"/><rect class="f" width="60.959" height="1.782" transform="translate(923.523 373.135)"/><rect class="f" width="23.354" height="1.782" transform="translate(923.523 386.791)"/><rect class="l" width="23.354" height="1.782" transform="translate(923.523 393.917)"/><rect class="l" width="60.959" height="1.782" transform="translate(923.523 390.353)"/><rect class="f" width="23.354" height="1.782" transform="translate(923.523 404.011)"/><rect class="l" width="23.354" height="1.782" transform="translate(923.523 411.135)"/><rect class="l" width="49.972" height="1.782" transform="translate(923.523 407.573)"/><path class="n" d="M960.383,359.332H917.842V322.19l1.473-1.8h41.069Z"/><path class="o" d="M910.791,328.817h13.923V314.254Z"/><g class="p"><circle class="q" cx="16.383" cy="16.383" r="16.383" transform="translate(1006.01 420.893)"/></g><circle class="r" cx="15.335" cy="15.335" r="15.335" transform="translate(1007.059 421.941)"/><g class="p"><path class="s" d="M1030.668,435.427h-6.427V429h-3.695v6.425h-6.427v3.7h6.427v6.427h3.695v-6.427h6.427Z"/></g><rect class="c" width="3.142" height="14.067" transform="translate(1020.823 430.242)"/><rect class="c" width="14.067" height="3.142" transform="translate(1015.361 435.705)"/><path class="t" d="M937.644,346.507h14.577V331.29Z"/><path class="u" d="M1004.58,435.926c0-8.469,8.363-16.277,16.832-16.277a15.767,15.767,0,0,1,3.763-.026c.017-.37.027-2.543.027-2.916v-85.99H951.894L936.841,346.18V446.234h69.212C1004.564,443.872,1004.58,438.927,1004.58,435.926Z"/><path class="c" d="M1003.271,437.562a19.144,19.144,0,0,1,19.144-19.143h0c.578,0,1.145.028,1.715.077V374.108h-85.9v70.163h66.252A19.114,19.114,0,0,1,1003.271,437.562Z"/><path class="c" d="M1024.066,374.763H937.971V346.18l13.923-14.562h72.172Z"/><rect class="l" width="23.354" height="1.782" transform="translate(995.35 340.304)"/><rect class="l" width="23.354" height="1.782" transform="translate(995.35 346.849)"/><rect class="l" width="23.354" height="1.782" transform="translate(995.35 353.394)"/><rect class="f" width="23.354" height="1.782" transform="translate(995.35 359.939)"/><rect class="l" width="23.354" height="1.782" transform="translate(995.35 366.483)"/><rect class="l" width="23.354" height="1.782" transform="translate(995.35 373.028)"/><rect class="f" width="23.354" height="1.782" transform="translate(950.703 386.936)"/><rect class="l" width="23.354" height="1.782" transform="translate(950.703 394.06)"/><rect class="f" width="60.959" height="1.782" transform="translate(950.703 390.498)"/><rect class="f" width="23.354" height="1.782" transform="translate(950.703 404.154)"/><rect class="l" width="23.354" height="1.782" transform="translate(950.703 411.28)"/><rect class="l" width="60.959" height="1.782" transform="translate(950.703 407.716)"/><rect class="f" width="23.354" height="1.782" transform="translate(950.703 421.374)"/><rect class="l" width="23.354" height="1.782" transform="translate(950.703 428.498)"/><rect class="l" width="49.972" height="1.782" transform="translate(950.703 424.936)"/><path class="n" d="M987.564,376.7H945.022V339.553l1.473-1.8h41.069Z"/><path class="k" d="M937.971,346.18h13.923V331.617Z"/></g></g></svg>