<svg xmlns="http://www.w3.org/2000/svg" width="250.584" height="214.249" viewBox="0 0 250.584 214.249"><g transform="translate(-1248.719 -638.085)"><path d="M1413.746,823.061l-144.963-6.287,7.134-164.5,144.964,6.287Z" transform="translate(94.722 -156.059) rotate(7)" fill="#f4f4f4"/><path d="M1420.421,817.5l-144.964-6.287,7.134-164.5L1427.555,653ZM1277.6,809.248l140.851,6.108,6.956-160.385-140.852-6.109Z" transform="translate(96.297 -159.25) rotate(7)" fill="#3f3d56"/><rect width="30.872" height="30.872" transform="translate(1290.701 698.832) rotate(-81)" fill="#54c0ee"/><path d="M1329.054,703.884l-32.9-1.427,1.427-32.9,32.9,1.427Zm-30.755-3.394,28.788,1.249,1.249-28.787-28.787-1.249Z" transform="translate(95.176 -162.258) rotate(7)" fill="#3f3d56"/><rect width="2.058" height="42.192" transform="translate(1361.647 685.063) rotate(-81)" fill="#3f3d56"/><rect width="2.058" height="42.192" transform="translate(1360.36 693.194) rotate(-81)" fill="#3f3d56"/><rect width="2.058" height="104.966" transform="translate(1292.885 717.932) rotate(-81)" fill="#3f3d56"/><rect width="2.058" height="104.966" transform="translate(1291.275 728.096) rotate(-81)" fill="#3f3d56"/><rect width="104.966" height="2.058" transform="translate(1294.086 757.789)" fill="#3f3d56"/><rect width="104.966" height="2.058" transform="translate(1294.086 768.08)" fill="#3f3d56"/><rect width="104.966" height="2.058" transform="translate(1294.086 778.371)" fill="#3f3d56"/><g transform="translate(1248.719 715.982)"><path d="M1419.223,759.266h-87.09A11.036,11.036,0,0,1,1321.1,748.23v-7.237a11.076,11.076,0,0,0-11.076-11.076H1269.8a11.076,11.076,0,0,0-11.076,11.076v114.96a10.316,10.316,0,0,0,10.317,10.316h150.187a10.316,10.316,0,0,0,10.316-10.316v-86.37A10.316,10.316,0,0,0,1419.223,759.266Z" transform="translate(-1258.719 -729.917)" fill="#f28393"/><path d="M1419.223,759.266h-87.09a11.036,11.036,0,0,1-11.036-11.036v-7.238a11.076,11.076,0,0,0-11.076-11.076H1269.8a11.076,11.076,0,0,0-11.076,11.076v114.96a10.316,10.316,0,0,0,10.317,10.316h150.187a10.316,10.316,0,0,0,10.316-10.316v-86.37A10.316,10.316,0,0,0,1419.223,759.266Z" transform="translate(-1258.719 -729.917)" fill="#f4f4f4"/><path d="M1411.446,759.266h-82.87a10.778,10.778,0,0,1-10.5-11.036v-7.238a10.818,10.818,0,0,0-10.539-11.076h-38.277a10.818,10.818,0,0,0-10.539,11.076v114.96a10.076,10.076,0,0,0,9.816,10.316h142.91a10.076,10.076,0,0,0,9.816-10.316v-86.37A10.076,10.076,0,0,0,1411.446,759.266Z" transform="translate(-1258.719 -729.917)" fill="#f67100" opacity="0.823"/></g><g transform="translate(1351.115 706.642)"><g transform="translate(0 0)"><circle cx="41.147" cy="41.147" r="41.147" transform="translate(0 58.19) rotate(-45)" fill="#fff" opacity="0.21"/></g><g transform="translate(23.365 20.876)"><path d="M1396.692,779.357a2.6,2.6,0,0,1-2.963-2.179,37.687,37.687,0,0,1,31.538-42.89,2.6,2.6,0,0,1,.784,5.142,32.48,32.48,0,0,0-27.181,36.964A2.6,2.6,0,0,1,1396.692,779.357Z" transform="translate(-1393.296 -734.259)" fill="#fff" opacity="0.76"/></g><g transform="translate(10.168 10.168)"><g transform="translate(-1372.996 -717.786)" fill="none" stroke-miterlimit="10"><path d="M1462.851,789.251a1.862,1.862,0,0,1,.169-.187,48.127,48.127,0,1,0-7.377,9.99l4.654-6.329Z" stroke="none"/><path d="M 1420.9638671875 808.8318481445312 C 1423.1357421875 808.8318481445312 1425.336547851562 808.6641845703125 1427.505126953125 808.3334350585938 C 1432.267944335938 807.607177734375 1436.823974609375 806.1102294921875 1441.046630859375 803.8841552734375 C 1445.031372070312 801.783447265625 1448.651977539062 799.0723266601562 1451.813110351562 795.822509765625 L 1456.268432617188 789.7639770507812 L 1458.82275390625 786.2897338867188 L 1458.8251953125 786.286376953125 L 1458.82763671875 786.2830200195312 C 1458.84619140625 786.2579345703125 1458.864624023438 786.2333984375 1458.8828125 786.20947265625 C 1461.016845703125 782.25830078125 1462.510986328125 778.0314331054688 1463.325927734375 773.6376342773438 C 1464.200073242188 768.9249877929688 1464.273315429688 764.1089477539062 1463.54345703125 759.3233642578125 C 1462.749267578125 754.1160888671875 1461.044799804688 749.1741333007812 1458.477294921875 744.634765625 C 1455.996337890625 740.2483520507812 1452.782958984375 736.35888671875 1448.926391601562 733.0743408203125 C 1441.136840820312 726.4401245117188 1431.246948242188 722.7864990234375 1421.078491210938 722.7864990234375 C 1418.90380859375 722.7864990234375 1416.701782226562 722.9541625976562 1414.533447265625 723.284912109375 C 1408.79052734375 724.1607666015625 1403.3935546875 726.1336669921875 1398.492065429688 729.1488037109375 C 1393.755615234375 732.0625610351562 1389.675170898438 735.8231201171875 1386.364013671875 740.325927734375 C 1383.052978515625 744.8287353515625 1380.679809570312 749.8447265625 1379.310424804688 755.2345581054688 C 1377.893432617188 760.8120727539062 1377.619018554688 766.552001953125 1378.494873046875 772.2949829101562 C 1379.2890625 777.502197265625 1380.993530273438 782.4440307617188 1383.56103515625 786.9832763671875 C 1386.0419921875 791.3694458007812 1389.25537109375 795.2587890625 1393.111938476562 798.543212890625 C 1400.9013671875 805.1771240234375 1410.791381835938 808.8310546875 1420.963134765625 808.8318481445312 L 1420.9638671875 808.8318481445312 M 1420.959838867188 813.8318481445312 C 1397.640258789062 813.8299560546875 1377.175903320312 796.809326171875 1373.552001953125 773.048828125 C 1369.553833007812 746.8331298828125 1387.564575195312 722.3402099609375 1413.779541015625 718.342041015625 C 1416.234008789062 717.9677124023438 1418.669555664062 717.7864990234375 1421.078491210938 717.7864990234375 C 1444.398071289062 717.7864990234375 1464.862548828125 734.8089599609375 1468.486328125 758.5695190429688 C 1470.151245117188 769.4868774414062 1467.9921875 780.1005249023438 1463.020141601562 789.0642700195312 C 1462.962280273438 789.1240844726562 1462.902465820312 789.1819458007812 1462.851196289062 789.25146484375 L 1460.296875 792.7257080078125 L 1455.642822265625 799.0545043945312 C 1448.578002929688 806.4235229492188 1439.130493164062 811.6185913085938 1428.2587890625 813.2763061523438 C 1425.804321289062 813.650634765625 1423.368774414062 813.83203125 1420.959838867188 813.8318481445312 Z" stroke="none" fill="#1b3f74"/></g><path d="M1553.358,857.732l-38.58-28.693c-.139-.1-.48.114-.952.551a51.289,51.289,0,0,0-5.074,6.179,44.254,44.254,0,0,0-4.276,6.766c-.178.438-.228.731-.107.822l38.58,28.693a8.735,8.735,0,0,0,12.306-1.877A8.967,8.967,0,0,0,1553.358,857.732Z" transform="translate(-1418.939 -756.704)" fill="#54c0ee"/></g></g></g></svg>