<svg xmlns="http://www.w3.org/2000/svg" width="99.229" height="108.291" viewBox="0 0 99.229 108.291"><g transform="translate(-849.857 -395.233)"><g transform="translate(858.091 395.233)"><path d="M949.872,454.914V399.233H883.718l-13.584,13.953v41.728Z" transform="translate(-868.11 -397.21)" fill="#fff"/><path d="M947.9,454.961H868.157a2.024,2.024,0,0,1-2.024-2.023V411.21a2.024,2.024,0,0,1,.574-1.411l13.584-13.953a2.025,2.025,0,0,1,1.45-.612H947.9a2.024,2.024,0,0,1,2.023,2.023v55.681A2.024,2.024,0,0,1,947.9,454.961Zm-77.714-4.047h75.691V399.28H882.6l-12.415,12.752Z" transform="translate(-866.134 -395.233)" fill="#54c0ee"/></g><path d="M872.151,415.483h12.99a1.011,1.011,0,0,0,1.012-1.012V400.838Z" transform="translate(-11.016 -2.77)" fill="#54c0ee"/><path d="M947.9,503.524H942.1v-4.047h3.769v-5.059h4.047V501.5Zm-12.874,0h-9.106v-4.047h9.106Zm-16.188,0h-9.106v-4.047h9.106Zm-16.188,0H893.54v-4.047h9.106Zm-16.188,0h-9.106v-4.047h9.106Zm-16.188,0h-2.112l-2.024-2.023v-6.993h4.047v4.97h.089Zm-.089-16.1h-4.047V478.32h4.047Zm79.738-.089h-4.047v-9.106h4.047Zm-79.738-16.1h-4.047v-9.106h4.047Zm79.738-.089h-4.047v-9.106h4.047Zm-79.738-16.1h-4.047v-9.106h4.047Zm79.738-.089h-4.047v-9.106h4.047Zm-79.738-16.1h-4.047v-9.106h4.047Zm79.738-.089h-4.047v-9.106h4.047Zm-79.738-16.1h-4.047v-9.106h4.047Zm79.738-.089h-4.047V413.48h4.047ZM872.9,409.237l-2.9-2.823,6.352-6.525,2.9,2.823Zm77.016-2.839h-4.047v-9.106h4.047Zm-9.071-7.118h-9.106v-4.047h9.106Zm-16.188,0h-9.106v-4.047h9.106Zm-16.188,0h-9.106v-4.047h9.106Zm-16.188,0h-9.106v-4.047h9.106Z" transform="translate(-8.043 0)" fill="#54c0ee"/><path d="M947.706,510H853.183a2.023,2.023,0,0,1,0-4.047h94.522a2.023,2.023,0,1,1,0,4.047Z" transform="translate(-0.644 -54.712)" fill="#54c0ee"/><path d="M851.88,510.126a2.024,2.024,0,0,1-2.023-2.023V497.479a2.023,2.023,0,1,1,4.047,0V508.1A2.024,2.024,0,0,1,851.88,510.126Z" transform="translate(0 -49.523)" fill="#54c0ee"/><path d="M1040.036,510.126a2.024,2.024,0,0,1-2.024-2.023V497.479a2.023,2.023,0,1,1,4.047,0V508.1A2.024,2.024,0,0,1,1040.036,510.126Z" transform="translate(-92.973 -49.523)" fill="#54c0ee"/></g></svg>